<?xml version="1.0" encoding="UTF-8"?>
<svg width="900" height="1463" version="1.1" viewBox="0 0 238.13 387.09" xmlns="http://www.w3.org/2000/svg" xmlns:cc="http://creativecommons.org/ns#" xmlns:dc="http://purl.org/dc/elements/1.1/" xmlns:rdf="http://www.w3.org/1999/02/22-rdf-syntax-ns#">
 <metadata>
  <rdf:RDF>
   <cc:Work rdf:about="">
    <dc:format>image/svg+xml</dc:format>
    <dc:type rdf:resource="http://purl.org/dc/dcmitype/StillImage"/>
    <dc:title/>
   </cc:Work>
  </rdf:RDF>
 </metadata>
 <path transform="scale(.26458)" d="m600 150v438.74a450 450 0 0 1 300 424.26v-863h-300zm0 438.74a450 450 0 0 0-150-25.736 450 450 0 0 0-0.46875 0 450 450 0 0 0-449.53 450 450 450 0 0 0 450 450 450 450 0 0 0 449.94-442.42h-299.94v-7.5801a150 150 0 0 1-150 150 150 150 0 0 1-150-150 150 150 0 0 1 150-150 150 150 0 0 1 150 150v-424.26zm299.94 431.84h0.06445v-7.1113a450 450 0 0 1-0.06445 7.1113z"/>
 <circle cx="198.44" cy="39.688" r="39.688" stroke-width=".26458"/>
</svg>
